<?xml version="1.0" standalone="no"?>
<!DOCTYPE svg PUBLIC "-//W3C//DTD SVG 20010904//EN"
 "http://www.w3.org/TR/2001/REC-SVG-20010904/DTD/svg10.dtd">
<svg version="1.0" xmlns="http://www.w3.org/2000/svg"
 width="1080.000000pt" height="1080.000000pt" viewBox="0 0 1080.000000 1080.000000"
 preserveAspectRatio="xMidYMid meet">

<g transform="translate(0.000000,1080.000000) scale(0.100000,-0.100000)"
fill="#000000" stroke="none">
<path d="M1226 6488 c-27 -43 -837 -2150 -832 -2164 4 -11 44 -14 214 -14
l210 0 91 263 c51 144 147 418 214 610 67 191 124 347 128 347 3 0 103 -273
221 -607 l215 -608 210 -3 c163 -2 212 0 215 10 6 16 -831 2170 -846 2180 -18
12 -25 9 -40 -14z"/>
</g>
</svg>
