<?xml version="1.0" standalone="no"?>
<!DOCTYPE svg PUBLIC "-//W3C//DTD SVG 20010904//EN"
 "http://www.w3.org/TR/2001/REC-SVG-20010904/DTD/svg10.dtd">
<svg version="1.0" xmlns="http://www.w3.org/2000/svg"
 width="1081.000000pt" height="1080.000000pt" viewBox="0 0 1081.000000 1080.000000"
 preserveAspectRatio="xMidYMid meet">

<g transform="translate(0.000000,1080.000000) scale(0.100000,-0.100000)"
fill="#010101" stroke="none">
<path d="M1244 6502 c-14 -9 -844 -2147 -844 -2173 0 -18 12 -19 210 -19 l211
0 17 43 c10 23 108 299 218 614 109 314 201 569 204 566 3 -2 102 -278 220
-611 l215 -607 213 -3 c198 -2 212 -1 212 16 0 21 -826 2150 -842 2169 -12 15
-18 16 -34 5z"/>
<path d="M5200 5760 c-87 -14 -209 -56 -280 -97 -36 -21 -102 -74 -146 -119
-137 -136 -203 -300 -204 -502 0 -122 22 -216 76 -330 145 -301 502 -461 839
-376 92 23 235 97 319 165 l76 61 -31 36 c-18 21 -60 67 -95 104 l-63 68 -63
-48 c-35 -26 -92 -61 -128 -77 -60 -28 -73 -30 -180 -30 -105 0 -120 2 -171
28 -167 82 -256 236 -247 430 3 81 8 102 40 167 129 271 457 324 696 114 45
-40 55 -45 67 -33 31 32 165 203 165 210 0 4 -24 28 -52 54 -64 56 -228 138
-321 160 -84 20 -222 27 -297 15z"/>
<path d="M2835 5739 c-3 -8 -4 -327 -3 -709 l3 -695 158 -3 157 -3 0 206 0
205 162 -2 161 -3 111 -200 112 -200 177 -3 c122 -2 177 1 177 8 0 10 -45 82
-223 357 l-66 102 42 24 c57 34 144 127 167 180 34 76 50 159 50 252 0 245
-123 400 -367 467 -71 19 -111 21 -445 26 -304 3 -369 2 -373 -9z m757 -287
c67 -33 104 -79 118 -147 25 -118 -17 -222 -106 -266 -46 -23 -61 -24 -251
-27 l-203 -3 0 236 0 237 198 -4 c181 -3 201 -5 244 -26z"/>
<path d="M6445 5738 c-3 -7 -4 -326 -3 -708 l3 -695 160 0 160 0 3 278 2 277
315 0 315 0 0 -280 0 -280 160 0 160 0 0 710 0 710 -160 0 -160 0 0 -295 0
-295 -315 0 -315 0 -2 293 -3 292 -158 3 c-120 2 -159 0 -162 -10z"/>
<path d="M8410 5040 l0 -710 548 2 547 3 3 133 3 132 -391 0 -390 0 0 155 0
155 340 0 341 0 -3 133 -3 132 -337 3 -338 2 0 150 0 150 375 0 375 0 0 135 0
135 -535 0 -535 0 0 -710z"/>
<path d="M10135 5738 c-3 -7 -4 -326 -3 -708 l3 -695 158 -3 157 -3 0 711 0
710 -155 0 c-115 0 -157 -3 -160 -12z"/>
<path d="M455 4094 c-45 -23 -65 -53 -65 -102 0 -58 36 -95 116 -117 72 -21
104 -47 88 -73 -18 -29 -87 -28 -141 2 -25 14 -49 26 -52 26 -4 0 -15 -15 -24
-34 -19 -40 -16 -44 54 -75 54 -25 157 -28 199 -6 108 56 89 181 -33 221 -86
28 -109 42 -105 67 3 19 9 22 53 22 28 -1 65 -8 83 -17 l32 -17 21 40 20 40
-43 19 c-54 24 -160 27 -203 4z"/>
<path d="M955 4091 c-184 -83 -152 -346 47 -390 157 -35 299 106 259 257 -25
89 -111 152 -211 152 -32 0 -72 -8 -95 -19z m171 -94 c86 -79 37 -217 -77
-217 -99 0 -156 124 -92 200 51 61 115 67 169 17z"/>
<path d="M1427 4104 c-4 -4 -7 -97 -7 -206 l0 -198 50 0 50 0 0 75 0 74 88 3
87 3 3 38 3 37 -90 0 -91 0 0 50 0 50 101 0 100 0 -3 38 -3 37 -141 3 c-77 1
-143 -1 -147 -4z"/>
<path d="M1827 4103 c-4 -3 -7 -21 -7 -40 l0 -33 65 0 65 0 0 -165 0 -165 45
0 45 0 0 165 0 165 60 0 60 0 0 40 0 40 -163 0 c-90 0 -167 -3 -170 -7z"/>
<path d="M2270 4097 c0 -12 45 -149 117 -354 15 -42 16 -43 62 -43 l47 0 39
135 c21 74 41 135 44 135 4 0 24 -61 45 -135 l39 -135 47 0 47 0 67 194 c36
106 66 198 66 205 0 6 -18 11 -45 11 l-44 0 -20 -67 c-11 -38 -30 -106 -43
-153 l-22 -85 -24 80 c-13 44 -33 112 -45 150 l-22 70 -45 0 -45 0 -40 -142
c-22 -79 -42 -143 -45 -143 -3 0 -23 64 -45 143 l-40 142 -48 3 c-35 2 -47 0
-47 -11z"/>
<path d="M3134 4098 c-9 -13 -174 -389 -174 -395 0 -2 22 -3 48 -3 48 0 49 1
65 40 l15 40 91 0 91 0 16 -40 c16 -39 17 -40 65 -40 27 0 49 2 49 5 0 2 -38
93 -84 202 l-84 198 -45 3 c-29 2 -48 -2 -53 -10z m78 -173 l26 -65 -59 0 -59
0 16 38 c9 20 20 49 26 65 5 15 13 27 17 27 4 0 19 -29 33 -65z"/>
<path d="M3540 3904 l0 -205 48 3 47 3 3 58 3 58 42 -3 c39 -3 43 -6 72 -58
30 -55 31 -55 83 -58 29 -2 52 -1 52 2 0 3 -18 33 -40 67 -39 61 -40 62 -20
76 31 22 50 67 50 122 0 42 -5 56 -30 84 -38 44 -89 57 -214 57 l-96 0 0 -206z
m234 107 c21 -17 21 -75 0 -95 -10 -11 -34 -16 -75 -16 l-59 0 0 66 0 66 59
-4 c33 -2 66 -10 75 -17z"/>
<path d="M4055 4097 c-3 -7 -4 -98 -3 -202 l3 -190 158 -3 157 -3 0 41 0 40
-110 0 -110 0 0 40 0 40 95 0 95 0 0 40 0 40 -95 0 -95 0 0 45 0 45 111 0 110
0 -3 38 -3 37 -153 3 c-118 2 -154 0 -157 -11z"/>
</g>
</svg>
